<svg xmlns="http://www.w3.org/2000/svg" width="256" height="254" fill="none" viewBox="0 0 256 254">
<!-- SVG created with Arrow, by QuiverAI (https://quiver.ai) -->
  <!-- 优化后外框：合并重复路径，保留原始渐变 -->
  <path 
    d="m252.8 56.11v142.6c0 29.02-23.8 51.88-52.61 52.31h-144.9c-28.15 0-51.01-23.39-51.01-51.55v-143.4c0-28.47 23.17-51.64 51.64-51.64h144.2c29.12 0 52.71 23.59 52.71 51.64z" 
    fill="url(#paint0_linear_1338_251)"
    stroke="url(#paint1_linear_1338_251)" 
    stroke-miterlimit="10" 
    stroke-width="2.5"
  />

  <!-- 优化后气泡对话框：合并重复路径，优化线条流畅度，保留原始渐变 -->
  <path 
    d="m178.7 39.24h-100.8c-22.79 0-41.13 20.17-41.13 40.76v78.97c0 10.96 6.34 20.64 14.17 27.12 1.68 1.42 2.65 2.23 1.95 4.83l-4.6 20.39c-1.16 4.97 3.67 8.48 8.51 5.7l31.41-17.24c2-1.06 3.11-1.4 5.41-1.4h85.1c20.16 0 39.84-19.67 39.84-39.35v-80.11c0-20.5-19.34-39.67-39.84-39.67z" 
    fill="url(#paint4_linear_1338_251)" 
    stroke="url(#paint5_linear_1338_251)" 
    stroke-miterlimit="10" 
    stroke-width="3"
  />
  <path 
    d="m177.8 42.44h-98.88c-20.86 0-38.66 17.3-38.66 37.57v78.97c0 9.88 5.53 18.73 13.7 24.9 2.85 2.24 3.41 4.49 2.51 7.94l-4.68 19.45c-0.9 3.69 0.97 4.69 4.42 2.69l29.96-16.75c2.67-1.45 3.87-1.64 6.54-1.64h85.1c18.65 0 36.85-18.2 36.85-35.91v-80.75c0-19.17-17.69-36.47-36.86-36.47z" 
    fill="url(#paint6_linear_1338_251)" 
    stroke="url(#paint7_linear_1338_251)" 
    stroke-miterlimit="10" 
    stroke-width="2"
  />

  <!-- 中间循环箭头：完全保留原始代码，未做任何修改 -->
  <path d="m180.2 80.11c-1.76-0.39-3.1 0.55-4.14 2.15l-4.39 5.96c-10.96-13.63-24.18-21.95-43.96-21.95-30.05 0-53.45 24.37-54.48 52.52-1.13 29.54 22.67 53.91 54.23 54.43 27.12 0.45 49.45-19.23 54.78-44.16 0.48-2.17-1.15-3.34-2.61-3.34h-6.8c-1.46 0-2.43 0.96-2.79 2.32-5.34 19.68-20.05 32.9-42.89 32.9-23.34 0-41.14-18.3-41.14-41.14 0-22.33 18.3-42.51 41.64-42.51 15.18 0 26.14 8.32 33.97 18.43 0.77 0.99 0.14 2.09-1.22 1.99l-9.31 0.9c-4.15 0.41-4.8 6.16-0.36 7.83l27.12 9.6c2.75 1.02 5.7-0.73 5.7-3.83v-27.63c0-2.32-1.36-4.04-3.35-4.47z" fill="url(#paint8_radial_1338_251)" opacity=".2"/>
  <path d="m179.5 79.07c-1.76-0.39-3.1 0.55-4.14 2.15l-4.09 5.54c-10.96-13.63-24.18-21.95-43.96-21.95-30.05 0-52.94 23.8-54.07 53.85-1.03 28.55 22.31 53.43 53.87 53.43 26.64 0 48.47-19.17 54.43-43.6 0.62-2.57-0.94-3.38-2.4-3.38h-6.32c-1.72 0-2.48 0.76-3.02 2.67-5.96 19.68-20.17 32.9-42.6 32.9-22.84 0-41.14-17.8-41.14-41.14 0-21.88 17.8-43.13 41.64-42.8 14.68 0.22 25.64 8.54 33.47 18.14 0.97 1.21 0.24 1.93-1.12 1.83l-8.9 0.9c-4.15 0.41-4.8 5.7-0.36 7.37l27.12 9.6c2.75 1.02 5.22-0.73 5.22-3.83v-27.63c0-2.32-1.64-3.61-3.63-4.05z" fill="url(#paint9_linear_1338_251)" stroke="url(#paint10_linear_1338_251)" stroke-miterlimit="10" stroke-width=".7"/>

  <defs>
    <linearGradient id="paint0_linear_1338_251" x1="21.47" x2="244" y1="234.9" y2="20.22" gradientUnits="userSpaceOnUse">
      <stop stop-color="#E83784" offset="0"/>
      <stop stop-color="#E697B6" offset=".526"/>
      <stop stop-color="#26B3E5" offset="1"/>
    </linearGradient>
    <linearGradient id="paint1_linear_1338_251" x1="128.5" x2="128.5" y1="5.706" y2="246.2" gradientUnits="userSpaceOnUse">
      <stop stop-color="#F9C7CF" stop-opacity=".62" offset="0"/>
      <stop stop-color="#E83784" stop-opacity=".19" offset="1"/>
    </linearGradient>
    <linearGradient id="paint4_linear_1338_251" x1="35.27" x2="220.1" y1="128.8" y2="128.8" gradientUnits="userSpaceOnUse">
      <stop stop-color="#FCEAEE" offset="0"/>
      <stop stop-color="#C7DCF1" offset="1"/>
    </linearGradient>
    <linearGradient id="paint5_linear_1338_251" x1="127.9" x2="127.9" y1="37.74" y2="218.8" gradientUnits="userSpaceOnUse">
      <stop stop-color="#F9FFFE" offset="0"/>
      <stop stop-color="#F9FFFE" stop-opacity=".25" offset="1"/>
    </linearGradient>
    <linearGradient id="paint6_linear_1338_251" x1="53.17" x2="201.8" y1="193.8" y2="45.09" gradientUnits="userSpaceOnUse">
      <stop stop-color="#F0B7CB" offset="0"/>
      <stop stop-color="#D681B6" offset=".526"/>
      <stop stop-color="#81C9F0" offset="1"/>
    </linearGradient>
    <linearGradient id="paint7_linear_1338_251" x1="127.4" x2="127.4" y1="41.44" y2="215.2" gradientUnits="userSpaceOnUse">
      <stop stop-color="#FCEAEE" offset="0"/>
      <stop stop-color="#F9FFFE" stop-opacity=".25" offset="1"/>
    </linearGradient>
    <radialGradient id="paint8_radial_1338_251" cx="0" cy="0" r="1" gradientTransform="translate(128 120.1) scale(63.62 60.71)" gradientUnits="userSpaceOnUse">
      <stop stop-color="#5F1A60" offset="0"/>
      <stop stop-color="#5F1A60" stop-opacity=".03" offset="1"/>
    </radialGradient>
    <linearGradient id="paint9_linear_1338_251" x1="73.17" x2="183.5" y1="118.4" y2="118.4" gradientUnits="userSpaceOnUse">
      <stop stop-color="#B6ECFF" offset="0"/>
      <stop stop-color="#68CCF0" offset="1"/>
    </linearGradient>
    <linearGradient id="paint10_linear_1338_251" x1="128.3" x2="128.3" y1="64.46" y2="172.4" gradientUnits="userSpaceOnUse">
      <stop stop-color="#F9FFFE" offset="0"/>
      <stop stop-color="#F9FFFE" stop-opacity=".25" offset="1"/>
    </linearGradient>
  </defs>
</svg>
